<svg width="1366" height="1425" viewBox="0 0 1366 1425" fill="none" xmlns="http://www.w3.org/2000/svg">
<path d="M1360.82 903.994C1354.62 903.447 1349.16 900.26 1344.62 896.709C1341.39 894.068 1338.98 891.427 1334.54 892.338C1332.41 892.793 1330.74 891.245 1331.11 889.697C1332.87 882.685 1328.8 883.414 1324.54 884.233C1322.79 884.597 1320.75 884.871 1320.01 883.231C1317.88 878.314 1313.81 877.95 1307.52 879.042C1313.26 872.213 1318.34 877.95 1322.6 876.219C1327.78 874.125 1330.93 883.414 1337.59 878.314C1333.8 875.764 1331.3 873.123 1326.95 872.486C1319.55 871.393 1318.25 869.116 1320.38 862.196C1321.58 858.28 1320.29 855.73 1318.53 852.725C1317.7 851.359 1316.03 848.718 1319.46 848.081C1323.8 847.352 1322.97 845.44 1320.57 843.801C1317.97 842.07 1318.16 839.156 1316.77 837.062C1315.11 834.603 1313.44 833.693 1317.51 831.325C1321.49 828.957 1316.03 826.407 1315.85 823.585C1315.66 819.396 1322.42 820.944 1321.12 816.299C1320.75 815.024 1320.38 813.75 1319.92 812.566C1318.81 810.107 1317.05 807.922 1316.4 805.372C1315.57 801.547 1314.64 799.817 1310.02 800.272C1304.83 800.819 1297.99 802.367 1296.78 793.716C1296.51 791.439 1294.75 792.441 1293.73 793.26C1292.06 794.626 1290.77 793.807 1289.2 793.078C1287.07 792.076 1284.2 791.985 1282.9 790.346C1280.78 787.887 1277.63 789.709 1275.59 787.796C1272.17 784.609 1273.1 789.982 1271.52 790.073C1267.54 790.346 1269.12 785.793 1266.8 784.518C1266.53 784.336 1265.97 784.063 1265.88 784.245C1260.23 789.709 1258.29 784.882 1255.98 780.784C1255.79 780.42 1254.03 780.602 1253.29 780.967C1251.63 781.786 1249.68 782.15 1248.67 780.602C1243.67 772.771 1236.54 773.135 1228.86 774.956C1227.38 775.321 1225.53 774.41 1226.46 773.044C1229.6 768.491 1226.55 767.58 1223.4 765.85C1220.44 764.211 1224.05 759.384 1219.7 757.381C1216.28 755.833 1214.71 750.278 1210.63 750.005C1206.28 749.732 1202.95 748.275 1199.99 745.543C1199.81 745.361 1199.62 745.178 1199.34 744.996C1204.53 745.27 1209.62 745.816 1214.8 746.544C1230.44 748.912 1246.26 747 1261.99 745.178C1265.04 744.814 1268.93 743.721 1268.28 739.806C1267.73 736.345 1265.51 733.158 1260.88 733.431C1259.49 733.522 1258.2 733.704 1256.81 733.704C1247.83 733.34 1238.86 733.067 1229.97 732.338C1226.74 732.065 1223.03 731.428 1222.2 726.784C1228.03 725.053 1233.4 725.509 1238.76 725.691C1248.11 726.055 1257.46 726.237 1266.8 725.873C1271.15 725.691 1276.7 724.871 1276.43 718.861C1276.24 713.67 1275.96 706.932 1270.87 704.655C1262.64 701.012 1257.36 694.638 1251.44 688.719C1241.17 678.429 1222.94 679.977 1215.26 665.406C1214.06 663.039 1210.26 663.949 1207.58 663.858C1201.94 663.767 1200.36 659.396 1201.38 656.027C1202.4 652.749 1209.8 652.384 1210.26 653.841C1212.85 661.582 1217.11 657.029 1220.63 655.754C1225.72 653.932 1230.53 651.383 1235.53 649.561C1238.58 648.378 1241.82 647.285 1241.91 643.642C1242 640.637 1238.39 640 1236.54 638.178C1233.58 635.173 1230.07 635.811 1226.46 635.902C1224.14 635.902 1221 636.903 1219.79 632.168C1229.33 631.986 1237.93 629.072 1245.89 624.701C1245.43 623.426 1244.5 622.242 1244.5 620.967C1244.32 611.223 1245.52 601.024 1233.95 595.925C1233.49 595.743 1232.93 594.377 1233.21 593.921C1238.02 585.179 1229.97 584.906 1225.44 582.629C1222.66 581.263 1219.42 580.899 1216.46 579.806C1214.06 578.896 1206.28 567.513 1207.3 566.511C1210.63 563.142 1213.5 558.862 1219.42 559.499C1227.2 560.41 1232.1 555.219 1237.56 552.214C1236.27 546.022 1229.7 549.937 1227.94 545.657C1237.01 541.377 1245.7 536.642 1256.16 539.101C1257.46 539.374 1258.94 539.01 1260.05 539.556C1264.3 541.742 1268.47 540.831 1271.06 537.644C1274.21 533.91 1270.87 529.175 1268.84 526.807C1259.77 516.062 1250.98 504.588 1236.27 500.672C1233.4 499.943 1229.79 497.12 1228.03 501.309C1226.09 505.862 1232.84 504.132 1233.58 507.137C1233.77 507.866 1233.58 508.594 1233.58 509.414C1228.4 509.778 1221.09 508.503 1221.09 504.496C1221.09 496.483 1217.3 498.395 1212.76 498.851C1211.19 499.033 1209.06 498.031 1207.95 496.847C1202.77 491.019 1195.92 488.378 1188.24 487.194C1190.55 482.55 1195.18 485.464 1197.49 482.914C1196.94 479.09 1193.24 477.177 1191.76 474.081C1189.91 470.165 1197.68 468.435 1194.72 463.609C1185.19 459.147 1175.75 454.047 1165.11 451.862C1160.29 450.86 1160.02 448.401 1162.33 444.121C1165.94 437.565 1171.12 439.568 1176.4 440.387C1176.58 437.929 1178.25 436.29 1180.38 437.109C1181.39 437.473 1181.86 438.111 1182.04 438.839C1184.63 434.377 1190.83 434.013 1194.35 430.735C1199.16 426.273 1196.57 418.077 1201.2 412.795C1203.14 410.519 1207.77 411.52 1207.95 407.331C1208.04 404.508 1202.95 403.689 1204.34 400.593C1208.23 398.589 1211.56 403.689 1214.98 399.955C1211.65 396.95 1208.04 396.495 1204.62 396.13C1202.03 395.948 1200.46 394.947 1199.16 393.034C1197.96 391.304 1195.46 389.938 1196.48 387.479C1197.49 384.838 1200.08 385.567 1202.31 385.385C1206.01 385.112 1211.28 389.483 1213.22 384.565C1215.08 379.921 1221.09 380.65 1222.57 374.913C1194.72 367.718 1166.59 363.621 1138.36 358.248C1138.36 356.427 1138.46 354.696 1138.64 352.875C1139.47 353.239 1140.31 353.695 1141.14 354.332C1143.92 356.609 1146.6 356.973 1149.84 356.427C1160.11 354.696 1160.3 354.787 1170.66 359.067C1171.86 359.523 1173.25 359.432 1174.64 359.614C1183.34 361.071 1191.11 359.523 1198.23 352.966C1194.26 348.777 1189.17 346.774 1183.98 346.956C1179.54 347.138 1176.21 345.954 1172.79 343.769C1163.35 337.667 1153.91 331.657 1142.07 338.942C1140.96 339.671 1139.94 339.671 1139.01 339.489C1137.62 335.937 1136.24 332.295 1135.59 328.561C1136.79 328.561 1138.09 328.925 1139.2 329.016C1154.56 330.473 1167.61 323.37 1181.02 317.907C1183.34 316.996 1187.22 315.448 1185.65 310.621C1182.32 308.163 1177.23 309.073 1171.68 306.615C1182.23 304.156 1182.78 304.156 1190.09 294.958C1193.51 290.678 1197.59 288.766 1203.05 288.766C1193.14 286.034 1193.52 285.943 1190.83 275.835C1189.91 272.466 1187.96 268.641 1183.52 267.093C1179.26 265.545 1175.19 264.907 1170.57 264.634C1156.59 263.906 1142.62 261.993 1126.24 260.354C1150.39 254.708 1172.51 263.268 1194.35 259.535C1193.89 256.256 1191.94 254.162 1192.5 251.157C1192.96 248.334 1191.02 247.514 1188.33 247.514C1174.18 247.15 1161.31 241.777 1148.45 237.133C1142.71 235.038 1135.96 235.767 1131.15 230.667C1124.76 223.837 1115.79 221.834 1107.27 218.92C1097.93 215.824 1088.49 213.638 1078.96 211.908C1078.31 208.357 1076.18 205.351 1071.46 203.712C1070.63 203.439 1069.89 203.166 1069.15 202.893C1068.78 201.618 1068.41 200.343 1068.04 199.068C1066.74 194.879 1065.17 190.872 1063.41 187.139C1063.87 185.317 1064.71 183.678 1066.46 182.494C1074.7 177.122 1072.39 170.838 1069.8 164.555C1066 155.357 1061.1 146.524 1057.49 137.327C1056.19 134.139 1057.21 130.406 1051.29 131.499C1047.31 132.227 1045.74 126.672 1041.2 128.22C1038.98 129.04 1035.84 129.677 1036.3 131.954C1037.87 139.33 1030.93 146.069 1035.37 153.991C1038.06 158.909 1038.8 165.557 1031.3 169.472C1031.21 169.472 1031.21 169.563 1031.12 169.563C1028.25 169.837 1026.03 172.477 1024.55 174.117C1018.99 180.491 1010.48 184.953 1008.35 194.151C1007.43 192.511 1007.06 190.781 1005.85 190.781C1005.58 190.781 1005.39 190.781 1005.11 190.781C1006.59 187.321 1006.32 182.585 1004.74 178.488C1000.02 178.397 1000.39 183.496 998.081 185.5C997.989 184.498 997.896 183.405 997.804 182.312C997.619 179.489 996.231 176.848 997.063 173.752C997.989 170.474 997.804 167.924 992.437 166.285C987.347 164.737 987.532 160.457 991.789 157.998C992.899 157.361 994.472 156.905 995.768 156.997C1001.13 157.179 1001.04 152.534 1002.06 150.258C1003.82 146.251 998.451 146.98 996.138 145.431C987.81 139.877 981.517 132.227 971.154 126.49C976.243 124.214 981.795 126.126 983.276 121.299C977.168 116.109 969.488 119.023 962.548 119.023C961.53 112.102 960.79 106.274 965.046 101.174C966.527 99.3531 967.73 97.3496 966.342 95.4373C962.455 90.1556 965.139 84.8739 965.786 79.5011C966.989 69.1198 968.84 58.8296 967.637 48.3573C967.175 44.1683 966.064 39.433 959.494 39.9794C951.074 40.7079 951.444 35.8815 952.276 31.2372C952.647 29.2338 954.682 27.5036 951.074 26.5019C949.13 25.9555 947.28 26.2287 945.706 27.1394C943.301 28.5053 943.208 30.5087 944.318 32.6032C945.244 34.3334 949.685 36.3368 947.557 37.1564C937.841 40.9811 946.077 46.0807 945.892 50.4517C945.799 52.1819 945.244 54.8228 943.578 54.1853C933.769 50.816 933.677 57.8279 933.677 62.29C933.677 68.9377 935.898 75.4032 926.182 78.4083C923.498 79.2279 924.701 82.8705 925.071 85.4203C926.182 92.7964 922.85 99.1709 919.242 105.363C917.206 108.733 908.878 110.463 907.119 108.277C904.436 104.999 907.675 102.905 909.71 100.719C910.728 99.6262 911.283 98.7156 909.895 97.5318C906.379 97.5318 905.454 100.628 904.621 102.449C902.122 107.458 897.681 111.465 898.699 118.385C899.439 123.394 892.869 128.767 892.591 134.868C892.406 138.146 891.944 140.787 887.595 141.151C883.801 141.425 878.341 141.151 877.693 138.237C876.675 133.593 870.938 129.768 874.084 124.396C874.825 123.212 876.028 122.939 877.231 122.392C882.783 119.934 884.541 114.652 880.469 111.465C877.231 108.915 873.899 106.82 872.696 102.813C870.661 96.1658 867.329 90.3377 860.204 86.6952C855.762 84.3275 855.855 80.5939 856.965 76.6781C857.521 74.8569 858.446 73.582 860.759 73.9462C862.98 74.3105 863.998 75.6764 863.35 77.5888C862.518 80.0475 861.315 82.9615 865.941 82.5973C868.347 82.4152 869.088 79.319 868.625 77.3156C867.792 72.9445 866.404 65.8415 864.461 64.8398C856.04 60.6509 859.927 58.5564 864.553 55.3692C866.219 54.2764 866.219 51.7266 863.906 51.4534C858.724 50.907 857.521 50.2696 860.945 45.7164C864.461 40.9811 859.742 36.8832 856.318 33.787C853.542 31.3283 849.655 29.2338 844.936 31.2372C835.96 34.9709 828.65 45.6253 828.835 54.3675C828.927 56.8262 830.315 57.0083 831.981 57.5547C834.109 58.1922 837.996 55.6424 837.996 60.1045C835.497 64.1113 828.372 61.7437 827.169 64.6577C823.653 72.9445 816.805 68.3913 811.346 68.9377C811.161 73.582 815.417 73.582 818.841 74.2194C823.375 75.13 826.059 77.4977 822.82 81.1403C819.304 85.056 823.838 87.1505 824.301 90.0645C824.763 92.7965 823.745 94.8909 821.71 96.8033C818.749 99.6262 817.453 97.3496 815.232 95.5284C812.456 93.2518 805.979 96.0747 805.238 90.8841C804.498 84.7828 800.427 79.0458 802.555 72.6713C803.295 70.3947 804.406 68.2092 805.331 66.0237C802.37 65.2951 800.149 62.7454 796.633 63.4739C793.579 74.0373 790.803 76.8603 781.272 74.0373C771.648 71.1232 763.598 74.1283 754.344 75.7675C754.252 63.5649 745.091 53.1836 747.127 40.7079C747.589 37.8849 746.109 34.7887 742.777 33.3317C738.613 31.6015 738.706 29.0517 740.742 26.2287C742.5 23.6789 741.945 20.6738 742.777 17.9419C745.461 9.29083 738.336 0.00230682 729.175 1.55039C723.345 2.5521 719.274 -0.0887569 714.369 0.00230701C718.071 4.19125 716.405 6.92317 711.038 7.56061C702.895 8.56232 698.083 11.8406 697.62 19.49C697.528 21.5845 696.14 23.4057 694.104 24.6806C688.737 27.8679 684.665 30.873 695.029 32.7853C696.417 33.0585 696.325 34.7887 696.047 36.0636C694.567 41.8917 689.57 44.8968 681.797 44.2594C677.91 43.8951 674.116 43.0755 673.376 48.1751C673.099 49.9053 671.988 51.3624 669.582 50.6339C667.547 49.9964 666.806 48.4483 666.714 46.627C666.621 43.3487 670.23 39.7062 665.603 36.7011C662.179 38.2492 662.087 41.0721 661.809 43.8041C658.848 40.3436 655.61 38.3402 652.186 37.976C651.538 33.9692 652.186 29.9623 655.054 25.7734C656.812 23.1325 657.09 21.2202 653.389 19.9453C649.965 18.7615 646.911 18.7615 644.968 22.0398C643.117 25.227 643.487 28.5053 644.32 31.8747C644.968 34.2423 646.634 36.7921 643.765 38.7955C641.729 40.2526 640.434 41.8917 639.693 43.6219C639.508 43.8041 639.416 43.8951 639.231 44.0772C637.01 46.4449 635.437 49.8143 631.921 45.5343C629.607 42.7113 628.034 45.2611 626.831 47.1734C623.407 52.3641 620.076 57.1905 612.858 55.9156C609.712 55.3692 608.324 58.01 607.491 61.0151C606.288 65.4773 604.715 69.9394 603.327 74.3105C601.199 80.8671 602.68 86.513 606.751 92.6143C611.1 84.965 608.509 77.5888 610.36 70.85C610.823 69.1198 611.008 66.9343 613.414 66.8432C616.097 66.7522 617.855 68.3002 617.948 70.85C618.225 77.862 618.596 85.056 617.855 91.9769C617.208 98.5335 618.225 107.002 608.047 107.458C605.641 107.549 604.993 110.554 604.438 112.831C602.772 119.023 597.868 118.932 593.519 118.021C589.262 117.111 587.504 145.978 587.319 142.882C586.486 121.664 584.358 100.537 581.582 79.5011C580.194 69.2109 576.03 60.1045 569.552 52.0909C557.893 59.1028 562.242 69.5752 564.74 77.5888C566.591 83.599 569.46 88.6986 565.295 94.0713C561.409 99.0799 566.406 107.913 557.708 111.191C556.69 104.635 553.358 97.3497 555.209 91.9769C559.558 79.5011 552.433 68.7556 552.896 57.0994C552.988 55.7334 551.6 54.3675 550.212 54.6407C549.102 54.8228 547.714 55.8245 547.159 56.9173C546.326 58.4654 545.585 60.4688 545.771 62.29C546.881 80.5939 538.275 98.6245 544.383 117.019C544.753 118.112 544.383 119.842 543.827 120.935C542.902 122.756 542.254 123.758 541.792 124.214C541.606 127.856 541.514 130.861 537.905 133.138C535.684 129.222 529.67 127.128 532.538 121.482C533.556 119.387 527.264 118.476 526.523 117.202C526.616 117.202 526.708 117.293 526.801 117.293C526.801 117.019 526.708 116.746 526.708 116.473C527.264 115.927 528.744 115.289 531.89 114.47C532.538 114.288 532.168 113.013 531.15 112.375C529.114 111.191 527.634 113.104 526.616 116.018C525.876 112.922 523.655 112.466 522.267 111.191C516.067 105.545 515.974 103.269 522.174 97.3497C527.726 92.0679 533.186 87.5147 530.132 78.0441C529.114 74.9479 531.243 70.759 532.168 67.0254C533.001 63.2917 533.186 59.6492 532.723 55.8245C532.261 52.1819 530.872 51.3624 527.449 51.6356C519.768 52.0909 517.27 49.6321 517.547 41.9828C517.825 36.5189 519.213 31.2372 520.694 22.0398C509.219 33.0585 495.247 34.2423 488.214 46.3538C483.032 55.187 472.483 60.4688 472.483 72.3981C472.483 80.5939 470.54 88.4254 469.429 96.3479C466.005 119.023 470.17 109.279 461.656 131.043C460.268 134.686 461.101 138.511 461.934 142.244C462.674 145.614 463.785 149.074 462.212 152.99C458.418 149.985 458.88 145.796 457.307 142.608C456.567 141.06 454.439 138.419 454.069 138.693C446.758 142.608 439.17 131.863 432.415 139.148C432.23 144.43 434.451 149.438 432.138 155.539C429.177 153.991 428.529 149.529 425.105 149.529C422.977 151.624 425.105 153.991 424.828 156.177C424.365 159.273 424.457 163.462 420.108 163.098C416.962 162.825 416.129 159.728 416.222 156.632C416.314 151.442 416.869 146.251 416.499 141.151C416.037 135.596 411.132 133.047 408.264 137.054C401.509 146.706 393.273 153.718 382.632 157.816C381.891 158.089 381.429 159.182 380.966 160.002C378.375 164.737 375.229 168.835 371.805 172.751C361.626 172.386 351.447 172.66 341.176 172.751C309.992 173.115 282.786 183.769 256.044 197.611C249.566 200.98 245.217 209.905 248.178 216.461C250.954 222.654 247.531 224.202 243.737 226.66C232.355 233.854 219.585 231.123 207.556 230.576C195.341 230.03 183.311 231.123 170.912 230.849C174.613 234.219 176.464 239.956 183.219 237.497C185.902 236.495 189.326 237.952 190.159 240.411C193.213 249.882 201.633 249.062 208.758 250.428C217.642 252.158 221.436 255.255 220.973 263.541C220.881 266 221.713 269.825 218.752 272.01C214.866 273.467 212.552 268.914 208.944 269.369C207.185 264.634 204.317 261.629 198.487 261.902C194.138 262.084 189.789 261.356 185.347 261.083C183.219 266.638 188.771 273.649 180.905 278.476C172.207 283.849 171.189 288.857 178.5 295.232C182.386 298.601 183.126 307.434 191.732 305.066C192.565 304.793 194.786 306.159 194.878 306.979C195.896 314.537 203.299 315.448 210.609 319.637C196.636 321.822 187.383 314.082 176.556 313.809C173.04 313.718 171.745 308.072 171.189 300.695C167.118 308.345 161.843 308.345 156.384 308.072C154.626 307.981 153.052 309.255 152.867 311.35C152.59 313.626 154.163 314.355 156.014 314.719C165.267 316.632 173.688 319.364 180.073 327.286C182.756 330.655 188.031 333.023 193.398 332.568C195.156 332.477 198.024 332.295 198.487 333.205C203.021 341.31 211.812 339.944 218.752 341.401C224.952 342.767 230.504 344.679 235.964 347.502C242.256 350.69 248.363 357.792 255.951 349.324C256.414 348.868 259.097 349.232 259.468 349.961C261.318 353.057 264.094 353.604 267.333 353.877C272.7 354.423 272.423 358.339 271.127 361.708C268.629 368.447 267.148 361.162 265.205 361.162C263.169 361.162 261.041 362.073 259.005 362.619C256.969 368.902 256.506 374.913 260.578 380.012C259.93 381.651 259.375 383.29 258.912 384.93C255.304 385.385 254.378 384.019 251.047 379.375C244.384 370.086 241.423 369.175 230.227 374.002C233.373 376.278 236.056 378.464 239.017 380.285C241.238 381.651 242.534 383.199 240.498 385.476C238.925 387.206 236.426 388.39 234.483 386.751C231.152 383.837 227.358 380.832 225.415 377.098C223.379 373.182 221.343 372.272 216.902 371.088C204.594 367.901 192.01 375.186 179.888 368.811C177.019 367.263 174.15 370.541 173.873 374.184C173.688 376.916 176.926 379.921 173.503 382.471C163.972 379.193 163.972 379.193 157.772 371.361C158.42 374.639 147.5 377.462 158.327 381.287C160.825 382.198 160.548 385.84 157.864 386.204C154.07 386.66 147.593 394.947 146.39 383.473C146.205 382.015 144.354 380.923 143.429 381.651C138.247 385.931 137.322 380.741 134.638 378.464C132.417 376.461 128.531 374.913 126.495 378.464C124.644 381.742 125.477 385.567 129.641 387.024C131.492 387.661 134.083 386.204 134.731 389.938C131.214 393.49 125.014 392.306 121.591 396.95C119.74 399.409 115.576 399.044 114.465 394.673C113.17 389.574 110.949 385.749 104.379 386.296C104.102 390.758 104.102 394.947 100.493 398.316C96.5137 402.141 99.5673 407.787 97.6241 412.249C97.3465 412.977 96.051 414.07 95.7734 413.888C89.9437 411.429 87.6303 419.352 81.4305 418.077C75.5082 416.893 70.3263 421.628 65.9771 424.998C62.7384 427.547 66.0697 432.374 66.4398 436.199C67.0876 442.573 67.6428 448.037 60.1474 451.679C53.3924 454.958 54.5953 459.875 59.8698 464.246C60.8877 465.066 61.1653 466.432 60.0549 467.433C56.261 469.801 53.3924 465.339 49.7835 466.341C46.5448 473.535 55.4282 478.908 53.2073 485.191C50.8014 491.93 58.1117 493.933 58.2967 499.124C58.5743 506.409 64.5891 507.866 70.0487 510.051C71.6218 510.689 72.8247 512.055 73.0098 513.967C66.4398 516.335 59.6848 515.697 52.3745 513.694C53.3924 518.885 57.7415 520.888 57.7415 525.441C57.7415 535.823 65.4219 539.647 74.1202 542.015C77.0813 542.834 80.32 542.925 83.4662 543.381C86.1497 543.745 89.1109 544.109 89.6661 547.388C90.1287 550.484 87.8154 552.032 85.3169 553.307C84.2065 553.853 83.1886 554.764 82.1707 555.492C78.747 566.329 81.6155 574.251 93.1824 577.985C94.9406 578.531 96.7913 579.169 96.1435 581.537C95.5883 583.722 94.3854 585.634 91.8869 586.181C89.1109 586.727 86.6124 585.088 84.0214 584.906C77.4515 584.451 79.0246 576.437 72.0844 573.159C76.2485 583.722 73.2874 593.648 81.9857 601.024C85.502 604.029 86.4273 610.131 88.4631 614.684C88.3706 614.775 88.278 614.775 88.1855 614.775C87.4452 614.32 86.705 613.864 85.9647 613.682C84.4841 613.227 83.1886 614.137 81.7081 614.957C79.3947 614.137 77.0813 612.954 74.2127 614.229C74.3978 614.411 74.5829 614.593 74.6754 614.775C71.1591 612.043 66.3473 613.409 62.4608 611.77C62.9235 609.129 62.2757 606.215 63.8488 603.483L73.2874 605.577C70.3263 597.473 70.0487 597.108 62.7384 600.387C58.5743 602.208 55.058 597.017 50.8014 600.751C49.691 601.753 47.6552 597.746 46.5448 595.925C44.8792 593.193 43.121 592.282 40.1599 592.373C37.8465 592.373 35.163 592.464 33.4048 591.371C27.3901 587.547 19.6171 590.461 13.7874 585.908C11.8442 584.36 9.62338 585.999 8.79056 587.82C7.31 590.825 5.08917 592.282 2.12805 593.466C0.740025 594.012 -0.0927893 596.016 1.57284 598.292C3.70114 595.287 6.75479 592.737 9.71591 595.105C13.6024 598.201 17.859 599.476 22.3007 600.66C24.0588 601.115 24.9842 602.663 24.0588 604.576C23.1335 606.397 21.1902 607.217 19.8948 606.033C13.7874 600.114 9.25324 606.579 4.99663 608.947C1.01763 611.132 2.12805 617.416 0.184815 621.696C-0.925604 624.063 3.23847 625.703 5.4593 626.977C15.4531 632.897 22.3932 643.187 33.6825 647.285C37.2913 648.651 35.0705 654.115 39.142 654.57C42.8434 655.025 45.0642 650.381 49.2283 651.109C51.3566 651.474 53.4849 649.561 55.3356 647.922C58.9445 644.917 63.016 642.732 67.9204 643.005C70.2337 643.187 72.0844 642.549 74.2127 640.728C77.9141 637.359 81.1529 638.816 81.3379 643.642C81.523 648.013 80.7827 652.384 80.5051 656.755C80.32 659.032 81.7081 659.761 83.5588 659.669C84.7617 659.578 86.5199 659.578 86.0572 657.575C85.7796 656.118 83.3737 655.389 85.2244 652.749C92.1645 655.025 99.1972 657.393 106.322 659.761C98.642 659.487 102.436 664.86 101.881 667.501C104.194 664.769 106.878 663.585 110.394 665.042C115.021 667.046 119.74 669.686 122.516 662.037C122.794 661.218 125.847 660.671 127.235 661.126C132.325 662.766 136.951 665.498 142.689 664.86C143.336 664.769 144.724 666.772 144.817 667.865C145.094 671.052 145.094 673.875 149.721 672.509C150.184 672.327 151.85 674.24 152.035 675.332C152.405 677.7 150.276 677.882 148.611 678.064C143.799 678.429 138.987 678.246 135.471 674.695C133.435 672.6 132.51 672.692 129.826 674.058C125.199 676.425 120.665 679.704 114.743 674.604C110.116 670.597 97.7166 675.423 96.1435 681.343C95.3107 684.439 94.1077 685.805 92.1645 687.626C91.5168 688.263 90.0362 690.267 92.1645 690.54C93.1824 690.631 94.3853 687.899 95.4958 690.813C96.051 692.27 94.3853 694.547 96.6062 695.184C98.1793 695.549 98.4569 692.179 100.585 692.999C101.973 693.545 102.528 694.547 102.343 696.095C102.158 697.825 98.642 699.009 102.528 702.105C104.194 698.372 107.063 695.913 111.504 696.732C114.188 697.188 115.853 699.646 118.722 699.92C120.943 700.193 123.349 701.104 125.292 702.287C128.993 704.655 128.068 697.279 130.659 699.464C133.435 701.741 137.136 701.559 140.56 702.014C139.45 705.475 140.468 709.664 143.799 713.306C147.778 717.768 153.515 717.404 159.437 720.773C151.479 724.234 155.736 731.701 152.775 736.709C151.664 736.983 150.832 737.438 149.999 737.347C147.13 736.892 142.781 733.613 141.948 737.802C141.023 742.993 135.563 746.362 136.489 751.917C134.083 751.462 131.677 751.098 129.641 750.096C126.865 748.548 124.829 751.735 126.773 755.287C127.976 757.472 126.31 757.472 125.477 757.836C123.256 758.656 121.406 759.111 121.035 762.389C121.035 762.572 121.035 762.754 121.035 763.027C118.259 762.754 115.483 762.389 112.707 761.934C95.6808 759.293 88.3706 769.766 77.3589 776.96C82.8185 782.241 88.9258 777.688 93.46 780.693C92.9048 783.152 90.869 783.425 89.2959 783.334C81.3379 782.697 87.7228 791.894 82.3558 793.078C81.7081 793.26 78.932 795.628 82.0782 796.994C88.7407 799.908 83.2812 802.458 81.3379 802.002C75.9709 800.545 73.7501 802.093 71.9919 807.011C70.2337 812.11 65.5145 812.566 60.7026 811.837C56.0759 811.2 50.9865 811.018 48.303 815.025C44.4165 820.944 39.142 822.765 32.572 823.585C29.2408 824.04 25.6319 825.497 24.614 829.048C32.7571 840.067 46.1747 831.78 55.6132 837.517C54.3177 843.619 46.8224 841.706 45.4344 845.531C41.3629 856.914 30.9989 850.539 24.0588 853.453C22.1156 854.273 19.8948 851.632 19.4321 849.447C18.8769 846.533 18.4142 843.892 14.7128 845.167C10.7338 846.533 7.49507 849.173 7.86521 853.727C8.23535 859.191 15.6381 867.022 21.4678 868.297C30.3512 870.209 39.0495 873.305 48.6731 872.122C47.9328 876.766 47.3776 880.226 46.7299 883.596C46.6373 883.96 46.1747 884.233 45.8971 884.597C43.5837 887.329 39.8823 885.69 37.1062 887.329C31.4616 890.699 27.9453 896.891 21.0052 898.803C18.9694 899.35 17.9515 903.903 20.5425 906.999C22.1156 908.911 24.9842 912.372 21.5604 913.556C12.8621 916.47 25.4468 918.291 21.6529 920.477C20.9126 920.75 20.0798 921.296 19.4321 921.205C11.4741 920.568 5.36677 925.03 3.88621 932.588C1.94298 942.787 2.03551 943.242 13.7874 946.157C16.8411 946.885 17.3963 947.249 18.0441 950.801C19.5246 959.27 21.9305 968.285 31.3691 971.928C37.4764 974.295 43.9538 975.661 50.3387 977.118C68.8457 981.398 87.7228 982.309 106.507 983.857C109.191 984.039 112.337 983.766 113.91 986.134C121.313 996.697 131.584 1002.89 143.984 1006.26C145.742 1006.71 149.351 1006.99 147.871 1010.08C145.465 1015.55 148.796 1019.19 150.647 1023.65C152.312 1027.66 152.96 1032.94 146.02 1033.3C137.229 1033.76 137.599 1039.41 137.969 1045.51C138.154 1048.15 141.301 1049.88 139.913 1052.88C134.453 1056.43 127.698 1052.7 119.647 1056.25C128.901 1061.35 123.997 1068.46 123.071 1074.1C121.128 1085.94 120.295 1085.76 133.805 1090.49C138.802 1092.22 145.557 1091.4 141.023 1100.05C139.727 1102.51 141.948 1105.15 144.262 1106.7C148.333 1109.53 152.59 1111.71 157.679 1112.62C173.133 1115.63 188.678 1118.09 203.762 1122.37C205.427 1122.82 207.185 1123.28 208.851 1123.73C203.299 1131.11 198.95 1138.76 198.21 1146.95C197.932 1150.32 197.284 1153.87 199.227 1156.42C202.744 1156.15 202.374 1152.23 205.057 1152.6C205.057 1155.06 205.52 1157.52 205.057 1159.79C203.391 1168.08 210.609 1172.91 211.905 1180.01C212.275 1182.01 213.848 1181.28 215.051 1180.83C216.809 1180.1 218.012 1178.82 217.827 1176.55C217.272 1171.72 213.848 1166.53 220.233 1160.25C221.066 1169.26 221.158 1176 222.546 1182.38C224.304 1190.48 226.895 1201.04 234.483 1202.41C240.776 1203.5 241.331 1205.87 242.441 1210.33C243.829 1216.25 245.772 1222.17 246.328 1228.27C247.068 1236.29 249.011 1240.75 257.895 1238.38C262.151 1237.2 267.518 1240.2 265.667 1245.03C261.596 1255.14 268.814 1256.78 273.718 1260.51C275.661 1259.51 276.216 1257.69 276.772 1255.96C277.512 1253.5 279.363 1252.31 281.306 1251.13C283.619 1249.67 282.694 1248.12 280.658 1247.3C277.789 1246.12 275.569 1244.39 277.419 1241.11C278.992 1238.38 279.363 1233.01 282.694 1233.65C291.577 1235.38 292.04 1222.72 299.905 1223.26C300.831 1223.36 300.646 1220.99 300.831 1219.62C303.514 1203.87 327.758 1205.05 342.009 1201.23C347.931 1199.68 349.319 1203.05 350.337 1207.24C350.8 1209.33 349.319 1211.88 349.504 1214.07C349.967 1218.8 350.244 1223.45 347.746 1227.73C352.558 1230.09 355.889 1235.56 361.534 1235.92C364.865 1236.1 383.742 1235.83 385.593 1236.65C386.611 1229.18 397.622 1230.37 397.622 1221.99C398.455 1223.36 399.473 1224.81 399.843 1226.36C400.583 1229.55 402.342 1232.1 405.21 1231C409.189 1229.55 407.801 1225.63 406.968 1222.54C406.691 1221.35 405.118 1220.62 404.285 1219.62C401.231 1215.8 404.377 1213.16 406.783 1211.97C409.744 1210.52 411.502 1213.25 412.243 1216.25C413.816 1222.63 410.947 1229.27 413.723 1236.2C417.887 1235.56 422.237 1234.92 426.586 1234.37C428.621 1234.1 430.842 1235.83 429.917 1237.29C427.511 1241.2 426.03 1243.3 432.323 1241.39C435.562 1240.38 436.209 1243.21 435.747 1245.48C435.006 1249.76 435.376 1254.59 429.454 1259.6C430.472 1248.03 422.051 1250.13 416.87 1246.58C420.201 1263.33 418.998 1280.45 423.625 1296.66C423.902 1297.57 424.087 1298.48 424.55 1299.3C426.401 1302.85 429.269 1303.58 432.415 1301.58C435.006 1299.94 437.875 1298.57 435.839 1293.93C433.803 1289.29 432.23 1284.37 431.12 1279.36C430.009 1274.26 428.807 1268.8 433.526 1262.51C439.263 1277.17 447.776 1287.1 460.638 1292.29H460.546C471.095 1292.75 464.803 1281.82 469.152 1277.99C476.369 1283.28 477.017 1282.82 481.644 1275.99C483.587 1272.98 480.904 1269.25 484.142 1267.07C488.306 1269.16 486.363 1273.8 487.936 1276.99C491.268 1273.17 488.584 1265.88 494.506 1263.61C496.82 1265.43 497.467 1267.61 497.838 1270.07C499.318 1279 500.891 1280.09 508.664 1277.72C510.422 1277.17 512.088 1276.72 513.754 1275.99C518.935 1273.53 520.694 1275.9 519.398 1280.91C517.085 1290.01 518.01 1299.03 516.9 1308.41C525.968 1306.86 514.031 1296.48 523.562 1296.12C525.135 1297.57 524.58 1299.48 524.673 1301.21C524.95 1306.22 527.634 1308.68 531.983 1309.59C531.89 1310.05 531.89 1310.69 532.26 1311.32C535.777 1318.43 535.684 1325.44 532.26 1332.54C531.15 1334.73 531.983 1337 534.852 1337.28C538.368 1337.55 537.905 1339.55 538.46 1341.56C539.571 1345.93 540.959 1350.3 541.977 1353.85C555.209 1345.93 552.803 1332.72 554.839 1319.97C566.961 1330.63 567.794 1330.72 566.036 1339.1C562.334 1356.95 569.46 1374.34 568.904 1392.01C568.904 1393.46 570.292 1394.92 571.958 1398.02C580.749 1383.9 585.098 1370.7 578.435 1355.85C582.785 1353.85 586.764 1351.57 591.113 1350.21C593.704 1349.39 597.683 1350.03 597.312 1353.3C596.757 1357.95 598.886 1363.78 593.796 1366.87C589.077 1369.69 589.54 1372.61 590.928 1376.52C593.796 1384.72 594.722 1392.92 594.536 1401.75C594.351 1408.94 594.166 1417.41 598.701 1424.79C603.697 1423.88 594.166 1366.51 597.405 1364.32C602.772 1360.68 601.847 1354.67 605.826 1350.48C611.841 1344.11 611.008 1343.1 602.587 1337.91C601.292 1337.09 600.274 1336.55 600.551 1335.09C600.829 1333.72 601.754 1332.63 603.235 1332.63C606.011 1332.54 610.73 1331.9 611.285 1332.91C614.524 1339.01 617.3 1335.45 620.169 1333.18C621.834 1331.81 623.222 1329.9 626.091 1330.72C626.831 1333.91 627.756 1336.55 629.052 1339.01C629.052 1339.46 629.145 1339.92 629.145 1340.46C629.33 1340.37 629.422 1340.19 629.607 1340.1C631.643 1343.47 634.419 1346.47 638.676 1350.12C643.21 1353.94 643.487 1359.31 639.046 1363.41C637.843 1364.5 635.622 1364.96 636.085 1367.05C638.028 1377.34 641.729 1386.91 651.168 1394.19C655.887 1388.27 647.559 1383.35 651.26 1377.98C654.962 1372.7 653.481 1367.24 649.595 1362.87C646.078 1358.86 648.392 1357.77 652.001 1356.76C655.239 1355.85 658.663 1354.31 661.809 1356.31C661.439 1361.04 654.962 1360.59 655.239 1364.69C655.332 1366.23 655.887 1368.51 657.09 1369.24C659.681 1370.79 659.403 1366.96 660.421 1366.96C668.194 1367.15 668.749 1356.95 678.095 1358.04C681.427 1358.4 679.946 1352.85 676.522 1350.3C673.376 1347.93 670.6 1343.2 675.69 1342.65C683.648 1341.83 682.074 1337.09 683.833 1333.18C684.11 1332.63 684.388 1332.45 684.666 1332.45C684.851 1332.63 685.128 1332.72 685.406 1332.91C686.794 1334.45 688.644 1339.64 690.403 1345.47C690.033 1347.02 689.57 1348.48 688.83 1349.93C687.442 1352.76 687.627 1355.4 690.958 1357.67C695.862 1361.04 696.417 1364.78 692.253 1369.33C689.2 1372.61 690.865 1376.34 691.513 1380.62C692.716 1387.63 698.638 1387.82 702.71 1390.55C709.372 1394.92 718.163 1397.65 713.814 1407.49C712.796 1409.76 715.11 1410.22 716.96 1410.49C718.348 1410.67 720.754 1410.22 720.476 1409.31C717.978 1401.02 730.748 1397.56 727.972 1389C727.139 1386.45 730.655 1383.99 733.061 1381.9C736.022 1379.35 740.371 1376.89 741.297 1373.7C743.24 1367.51 746.294 1367.05 751.106 1370.61C756.658 1374.61 758.601 1370.61 760.544 1367.51C762.21 1364.87 760.637 1361.77 760.637 1358.86C760.637 1353.85 759.249 1348.48 763.69 1343.92C769.427 1348.11 766.929 1352.94 767.022 1357.4C767.114 1363.68 764.986 1371.15 768.039 1375.89C770.538 1379.71 779.421 1380.17 785.529 1382.17C785.714 1382.26 785.621 1382.99 785.714 1384.17C780.254 1383.9 774.794 1384.08 769.52 1383.35C763.32 1382.53 763.043 1385.36 764.431 1389.09C765.726 1392.37 769.798 1395.01 764.893 1398.65C762.672 1400.29 764.801 1402.3 765.726 1404.21C769.057 1410.76 774.332 1416.32 778.959 1422.06C782.197 1426.15 786.454 1426.25 787.657 1420.6C788.49 1416.87 789.785 1416.68 793.116 1418.05C799.224 1420.6 802 1419.32 799.779 1413.13C799.131 1411.22 799.316 1409.13 801.445 1409.58C808.2 1411.04 810.513 1404.94 815.417 1403.21C819.489 1408.94 810.328 1409.95 811.438 1414.77C813.474 1414.86 815.602 1415.04 817.823 1415.04C824.578 1414.86 826.336 1412.22 821.895 1407.3C819.581 1404.75 819.396 1403.21 821.34 1401.02C826.984 1394.37 828.187 1386.91 827.817 1378.53C827.539 1372.43 830.13 1366.23 831.981 1360.22C832.351 1358.95 832.906 1357.95 833.554 1357.22C835.497 1358.13 837.441 1358.86 839.476 1359.5C841.235 1365.96 842.715 1373.06 843.548 1377.44C845.028 1373.43 858.169 1370.79 845.214 1365.05C846.139 1364.32 847.064 1363.5 847.99 1362.77C851.598 1364.69 855.115 1366.96 859.094 1368.42C865.294 1370.7 871.031 1375.16 877.231 1378.35C882.413 1380.99 887.317 1383.45 893.239 1384.99C901.475 1387.09 909.895 1389.91 916.65 1395.83C917.298 1396.38 917.946 1397.01 918.686 1397.47C922.758 1400.57 929.143 1397.38 931.826 1400.38C935.065 1404.03 938.489 1405.48 942.745 1406.03C945.984 1406.48 949.408 1406.21 949.408 1410.86C949.408 1411.77 950.426 1412.68 951.166 1412.4C955.793 1410.31 957.458 1414.5 959.494 1416.59C965.139 1422.33 972.079 1423.6 979.482 1423.06C983.091 1422.79 986.514 1422.51 989.661 1423.97C992.344 1425.15 993.177 1423.7 994.472 1422.06C996.323 1419.78 996.046 1416.87 993.732 1416.14C985.867 1413.86 983.646 1404.3 975.225 1402.84C973.004 1402.48 971.524 1400.84 974.3 1398.65C976.891 1396.74 974.115 1397.01 973.282 1396.38C971.154 1394.65 969.58 1392.46 971.154 1389.73C973.004 1386.27 975.595 1385.72 978.927 1388.36C980.222 1389.36 982.35 1390.09 983.368 1388C984.108 1386.45 982.535 1385.18 981.24 1384.72C974.763 1382.35 969.21 1378.53 963.381 1374.98C964.676 1374.52 965.602 1373.52 965.972 1371.43C966.897 1366.42 970.413 1362.68 974.022 1358.68C974.207 1358.49 974.392 1358.22 974.577 1358.04C977.631 1356.85 978.927 1354.21 980.592 1352.76C982.165 1351.39 984.479 1352.03 985.219 1350.12C987.07 1352.76 990.956 1356.4 990.308 1357.95C987.07 1364.96 992.807 1362.14 995.213 1363.23C997.433 1364.23 997.341 1359.95 1000.02 1361.68C1001.6 1362.77 1003.91 1362.87 1006.5 1363.5C1006.87 1361.41 1004.19 1360.22 1005.02 1358.13C1005.85 1356.22 1004.93 1356.49 1003.08 1356.49C998.451 1356.67 1001.41 1353.58 1001.04 1351.57C1005.76 1351.76 1008.91 1357.4 1014.27 1353.58C1015.94 1352.39 1016.13 1355.67 1015.48 1357.04C1014.92 1358.13 1012.7 1358.68 1014.27 1360.32C1016.4 1362.68 1016.68 1359.31 1017.79 1359.04C1019.36 1358.59 1021.31 1357.95 1022.33 1360.13C1023.34 1362.41 1025.1 1361.77 1026.77 1361.41C1027.6 1361.23 1028.43 1361.04 1029.27 1360.86C1027.88 1369.69 1034.26 1363.96 1037.04 1364.87C1037.78 1365.14 1038.33 1365.87 1038.89 1366.51C1041.94 1369.69 1044.26 1373.79 1049.81 1373.79C1051.2 1373.79 1053.32 1376.07 1052.31 1378.44C1051.38 1380.62 1049.07 1378.35 1047.22 1379.8C1049.53 1382.17 1051.38 1384.9 1052.12 1388.45C1054.62 1386.54 1052.68 1384.99 1052.77 1383.45C1053.05 1379.53 1054.62 1378.16 1058.14 1379.35C1062.3 1380.8 1066.74 1381.9 1070.17 1384.45C1074.89 1387.91 1079.51 1390.18 1085.43 1390C1087.38 1389.91 1088.21 1390.55 1088.86 1392.73C1090.15 1396.92 1092.28 1397.11 1094.78 1393.74C1095.61 1392.64 1096.26 1391.46 1096.91 1390.46C1094.5 1388 1090.71 1392.19 1088.86 1387.91C1091.63 1386.09 1095.98 1387.36 1097.56 1383.35C1098.02 1382.08 1099.31 1382.81 1100.15 1383.9C1102.92 1387.45 1104.68 1386.54 1105.42 1382.44C1105.79 1380.26 1106.44 1379.71 1108.85 1380.71C1112.55 1382.35 1113.93 1380.17 1112.82 1376.98C1111.16 1372.43 1109.86 1367.6 1107.27 1363.32C1106.53 1362.05 1106.07 1360.22 1104.4 1360.68C1100.52 1361.77 1100.52 1358.59 1099.04 1356.76C1097.37 1354.58 1095.61 1353.67 1093.85 1357.04C1092.37 1359.95 1090.34 1362.68 1088.49 1365.51C1087.84 1365.05 1087.38 1364.78 1087.38 1364.69C1088.4 1360.86 1091.26 1356.22 1090.06 1353.49C1088.49 1350.12 1083.4 1348.2 1079.79 1345.75C1077.29 1344.01 1073.59 1343.38 1073.22 1338.82C1077.38 1338.37 1079.97 1341.19 1082.84 1343.1C1084.51 1344.2 1085.71 1346.2 1087.84 1346.47C1090.34 1346.66 1093.39 1347.29 1093.02 1342.92C1092.74 1339.1 1094.04 1337.73 1098.3 1339.19C1100.52 1339.92 1103.39 1338.73 1105.98 1338.28C1108.01 1337.91 1110.7 1337.09 1111.9 1338.55C1115.79 1343.29 1122.36 1338.28 1126.24 1342.74C1126.7 1343.29 1127.82 1342.19 1128.19 1341.47C1128.74 1340.46 1129.2 1339.1 1127.63 1338.73C1120.41 1337 1121.99 1331.54 1121.89 1326.53C1121.8 1323.43 1123.84 1320.34 1120.23 1317.06C1118.1 1315.06 1116.43 1312.78 1113.47 1312.96C1109.31 1313.24 1107.37 1311.51 1107.18 1307.77C1107.09 1305.22 1105.61 1304.13 1103.48 1303.67C1099.59 1302.94 1096.35 1300.58 1093.67 1298.21C1090.71 1295.57 1086.08 1297.57 1084.23 1294.48C1082.38 1291.29 1080.71 1288.65 1076.64 1288.37C1075.72 1288.28 1075.53 1287.19 1075.81 1286.28C1076.09 1285.28 1076.92 1285.1 1077.85 1285.01C1079.7 1284.82 1080.99 1285.73 1082.47 1286.74C1086.73 1289.47 1090.34 1293.38 1095.61 1294.66C1098.48 1295.3 1100.61 1297.94 1103.94 1294.29C1106.07 1291.93 1107.83 1295.2 1108.01 1297.66C1108.2 1300.3 1110.88 1303.22 1111.9 1301.49C1114.68 1296.39 1120.69 1300.12 1123.37 1296.12C1123.74 1295.57 1125.87 1297.21 1125.87 1295.3C1125.87 1294.39 1124.76 1293.29 1123.93 1292.56C1121.71 1290.83 1119.58 1294.2 1116.8 1292.56C1116.8 1290.2 1118.93 1289.1 1120.6 1287.83C1122.45 1286.46 1123.93 1285.73 1124.95 1289.01C1126.06 1292.65 1128.74 1295.57 1133.09 1295.75C1137.53 1295.93 1137.35 1302.13 1142.44 1302.03C1141.7 1294.48 1137.53 1288.83 1132.26 1283.82C1131.15 1282.82 1130.13 1283.73 1129.11 1283.91C1125.13 1284.55 1122.17 1282.36 1121.62 1278.54C1120.6 1272.07 1119.02 1268.7 1115.05 1264.61C1115.6 1262.79 1117.17 1262.97 1118.56 1262.6C1120.97 1262.06 1124.02 1262.06 1121.62 1258.05C1121.25 1257.41 1123.28 1255.23 1124.3 1253.95C1124.85 1253.22 1125.87 1253.22 1126.7 1253.59C1127.63 1254.04 1127.63 1254.77 1127.54 1255.68C1127.45 1261.97 1127.72 1262.69 1133.55 1262.24C1137.44 1261.88 1140.59 1264.7 1144.56 1263.42C1146.97 1262.69 1149.75 1262.79 1152.06 1260.69C1149.47 1255.59 1144.47 1252.31 1140.31 1249.58C1135.5 1246.49 1131.33 1243.03 1127.82 1238.84C1133.18 1239.47 1138.64 1240.2 1144.47 1238.38C1143.82 1237.56 1143.18 1236.83 1142.44 1236.38C1143.64 1236.56 1144.93 1236.74 1146.23 1236.83C1145.03 1234.83 1144.75 1233.55 1143.92 1233.01C1142.9 1232.37 1141.97 1231.64 1140.96 1231C1152.61 1231.19 1164.09 1232.46 1175.47 1228.36C1164.18 1222.99 1151.78 1227.36 1140.96 1220.81C1146.04 1216.71 1150.21 1219.44 1154 1218.89C1156.5 1218.53 1160.02 1218.89 1159.74 1215.25C1159.55 1212.79 1156.87 1212.43 1154.47 1212.43C1151.78 1212.52 1149.1 1212.52 1146.51 1212.06C1142.71 1211.43 1141.42 1208.51 1141.42 1205.23C1141.42 1201.23 1145.03 1202.14 1147.34 1201.68C1151.13 1201.04 1154.93 1200.77 1159 1200.32C1157.33 1197.04 1151.5 1198.4 1152.61 1194.03C1153.73 1189.93 1157.98 1191.85 1160.76 1191.85C1165.2 1191.76 1169.73 1193.12 1174.08 1192.76C1175.38 1192.67 1176.58 1192.12 1177.41 1191.48C1182.69 1192.76 1187.96 1193.94 1192.77 1196.13C1196.85 1198.04 1201.1 1194.67 1204.34 1196.67C1211.93 1201.41 1220.44 1202.77 1228.59 1205.78C1236.08 1208.51 1242.37 1209.06 1249.13 1205.51C1253.48 1212.34 1256.25 1214.52 1263.01 1216.53C1265.14 1217.16 1267.54 1216.71 1269.3 1218.98C1270.78 1220.9 1272.63 1224.36 1275.5 1221.9C1277.91 1219.89 1275.69 1216.89 1275.04 1214.25C1274.02 1210.33 1271.98 1208.51 1267.82 1208.97C1266.25 1209.15 1264.03 1209.15 1263.01 1208.24C1253.66 1199.77 1239.13 1207.05 1230.25 1197.49C1230.07 1197.31 1229.51 1197.31 1229.33 1197.49C1225.25 1201.14 1223.68 1199.22 1223.03 1194.76C1222.76 1192.94 1221.37 1191.76 1219.7 1191.3C1209.89 1188.2 1203.42 1178.64 1192.68 1177.28C1187.87 1176.64 1185.56 1173.73 1186.94 1168.72C1187.5 1166.44 1186.48 1165.07 1184.82 1164.98C1177.97 1164.35 1176.86 1157.7 1173.25 1153.78C1172.32 1152.69 1172.51 1150.78 1170.75 1149.78C1169.46 1149.05 1168.16 1148.23 1166.96 1147.32C1168.53 1144.58 1166.68 1143.95 1160.67 1142.31C1158.72 1140.85 1156.59 1139.49 1154.28 1138.48C1154.19 1138.3 1154.1 1138.12 1154 1137.85C1155.02 1136.75 1156.22 1136.21 1157.61 1135.93C1159.55 1136.12 1162.15 1137.76 1163.07 1135.66C1163.07 1135.57 1163.16 1135.57 1163.16 1135.48C1165.11 1135.3 1166.96 1134.75 1168.25 1133.02C1168.16 1132.66 1168.07 1132.38 1167.98 1132.02C1169.46 1131.93 1171.03 1132.2 1172.51 1132.11C1178.52 1131.74 1184.54 1131.74 1190.46 1131.47C1196.01 1131.2 1201.75 1131.29 1205.45 1125.55C1207.58 1122.18 1211.19 1122.18 1214.52 1121.73C1218.22 1121.27 1223.5 1125.64 1224.61 1117.81C1224.7 1117.45 1227.01 1117.36 1228.31 1117.36C1229.97 1117.36 1231.82 1118.09 1232.1 1115.44C1232.38 1113.44 1230.99 1112.35 1229.6 1111.44C1227.38 1110.07 1222.94 1110.8 1222.76 1108.07C1222.39 1101.06 1217.2 1099.96 1212.58 1097.6C1209.8 1096.14 1206.93 1093.95 1207.95 1089.86C1216.09 1089.04 1223.59 1093.32 1233.21 1091.13C1227.75 1087.94 1223.59 1085.58 1220.17 1083.57C1218.5 1079.75 1225.53 1078.47 1221.74 1075.19C1216.65 1070.73 1215.26 1077.2 1212.95 1079.57C1211.1 1078.2 1210.45 1076.92 1210.54 1075.56C1211 1070.09 1210.36 1068.18 1204.99 1072.55C1201.84 1075.1 1197.31 1075.92 1193.42 1077.47C1192.96 1075.19 1193.05 1072.46 1191.02 1071.01C1187.78 1068.73 1183.24 1067.64 1181.21 1064.72C1179.26 1061.99 1182.32 1056.8 1178.52 1053.79C1178.43 1053.7 1178.71 1053.16 1178.89 1052.43C1184.63 1054.8 1190.46 1049.06 1196.57 1051.79C1195 1055.25 1191.29 1054.34 1189.17 1056.62C1196.2 1057.8 1196.11 1057.44 1203.23 1055.16C1207.77 1053.7 1213.04 1051.88 1215.54 1059.08C1216.46 1061.72 1226.46 1062.26 1226.64 1060.35C1227.29 1051.61 1234.88 1054.8 1236.82 1055.8C1243.3 1059.08 1248.57 1054.98 1254.22 1054.07C1259.03 1053.34 1259.86 1049.06 1256.62 1045.05C1253.2 1040.95 1249.87 1036.95 1248.48 1031.39C1247.65 1027.84 1244.96 1025.84 1240.25 1025.93C1233.3 1026.02 1230.62 1021.65 1232.75 1016.18C1234.51 1011.72 1237.93 1010.9 1244.13 1013.54C1243.3 1011.54 1242.56 1009.45 1241.73 1007.44C1240.71 1004.89 1240.52 1002.62 1243.39 1000.98C1242.37 992.781 1248.67 995.786 1253.01 995.058C1250.24 992.508 1249.78 987.226 1246.72 987.591C1239.23 988.501 1233.12 987.5 1228.96 980.579C1228.68 980.214 1227.11 980.852 1226.18 980.67C1224.7 980.397 1224.05 979.577 1224.7 977.847C1226.55 973.294 1223.4 973.203 1220.81 974.113C1218.87 974.842 1217.48 976.481 1215.63 974.386C1209.62 967.739 1201.75 963.459 1194.72 958.177C1191.29 955.627 1188.24 953.26 1184.35 952.076C1185 951.62 1185.46 950.983 1185.65 949.981C1184.17 949.162 1182.5 948.342 1181.02 947.34C1176.77 944.517 1174.45 941.694 1174.08 938.871C1176.21 937.688 1177.6 935.502 1179.36 933.59C1181.02 931.677 1182.23 928.854 1186.2 929.401C1180.1 938.78 1190.18 938.962 1192.59 943.607C1195.74 941.968 1192.68 937.87 1196.11 937.505C1199.16 937.141 1199.81 939.327 1199.99 942.059C1200.18 943.971 1202.12 945.064 1203.69 944.608C1206.47 943.698 1208.6 944.699 1209.62 946.794C1211.37 950.528 1214.89 951.347 1218.04 953.077C1220.17 954.261 1223.03 954.808 1224.05 957.813C1226.09 963.823 1230.44 961.546 1234.32 961.091C1235.06 958.268 1233.68 957.357 1232.29 956.447C1230.81 955.445 1229.88 953.897 1230.81 952.076C1231.92 949.89 1233.49 951.438 1235.06 951.711C1237.65 952.167 1240.52 952.531 1242.93 951.803C1244.78 951.256 1242.56 949.799 1242.37 948.706L1242.56 948.889C1239.5 944.062 1232.01 950.163 1229.7 943.698C1232.1 941.239 1235.99 941.603 1238.39 938.78C1242.19 934.592 1244.59 934.956 1247.28 940.419C1248.76 943.334 1251.35 945.246 1253.2 943.334C1255.42 941.148 1259.03 939.145 1259.12 935.593C1259.21 931.769 1255.79 931.222 1252.74 930.585C1252.18 930.494 1251.81 929.765 1250.98 929.036C1252.09 927.215 1252.37 924.21 1255.42 924.483C1261.53 925.03 1268.28 923.299 1272.72 929.492C1274.39 931.859 1276.8 932.497 1279.57 930.767C1279.39 927.397 1277.26 925.576 1275.87 923.391C1274.95 921.843 1272.82 920.112 1275.32 918.2C1277.07 916.834 1279.76 916.379 1280.78 918.291C1282.63 922.025 1285.31 921.023 1288.27 920.932C1292.25 920.75 1296.14 921.205 1300.02 922.025C1306.41 923.482 1312.98 924.21 1319.55 925.212C1320.57 925.303 1321.95 926.396 1322.6 924.119C1323.71 920.477 1323.8 920.659 1328.15 923.299C1329.54 924.119 1331.3 923.755 1332.97 922.662C1331.58 916.834 1327.04 915.468 1322.05 914.831C1326.3 910.186 1331.95 912.463 1336.76 912.463C1345.73 912.463 1354.34 909.094 1363.22 909.002C1364.24 909.002 1365.63 908.092 1366 906.27C1365.35 904.813 1363.32 904.176 1360.82 903.994ZM1049.53 1273.08C1046.29 1273.53 1045 1270.53 1042.59 1269.98C1046.11 1268.34 1048.98 1267.98 1049.53 1273.08ZM949.871 1339.64C948.575 1338.64 948.02 1334.54 949.315 1331.99C951.906 1332.27 952.091 1334.54 950.981 1336.91C950.518 1337.91 950.148 1338.82 949.871 1339.64C949.871 1339.73 949.871 1339.73 949.871 1339.64ZM877.046 1316.88C875.658 1316.7 874.732 1314.6 873.807 1312.05C875.658 1312.32 877.601 1311.23 879.359 1311.23C880.469 1311.23 881.765 1311.14 882.32 1312.51C882.783 1313.69 882.69 1314.69 881.765 1315.6C881.302 1316.24 880.099 1316.88 878.619 1317.24C878.156 1317.06 877.601 1316.97 877.046 1316.88ZM902.955 1302.67C901.567 1304.95 897.866 1305.95 896.293 1304.4C895.738 1303.86 895.46 1302.76 895.645 1302.03C896.015 1300.49 900.92 1299.39 902.493 1300.4C903.418 1300.94 903.511 1301.76 902.955 1302.67ZM925.164 1346.29C921.277 1341.37 914.8 1342.92 910.543 1339.37C911.006 1338.64 911.376 1337.82 911.746 1337.09C913.134 1334.73 911.376 1330.45 912.024 1330.26C915.725 1329.26 915.725 1327.71 914.615 1324.71C914.152 1323.43 916.003 1323.43 917.113 1323.89C918.501 1324.44 918.594 1327.35 921.092 1325.89C921.647 1323.62 921.462 1320.88 922.85 1319.06C922.48 1322.25 921.832 1325.44 920.907 1328.63C920.352 1330.54 920.722 1333.45 923.406 1333.91C927.2 1334.54 928.217 1331.36 928.032 1329.08C927.94 1328.26 927.94 1327.53 928.032 1326.89C929.79 1325.98 929.79 1324.35 929.79 1322.8C930.993 1321.7 932.752 1321.16 935.065 1321.16C935.065 1321.25 935.065 1321.34 934.972 1321.43C933.307 1328.53 933.862 1329.35 941.45 1328.72C942.56 1328.63 943.208 1328.72 943.763 1328.99C943.763 1329.08 943.763 1329.17 943.763 1329.26C943.856 1330.72 941.265 1333.54 945.336 1332.63C945.521 1333.82 945.706 1335.09 945.984 1336.73C942.19 1335.55 938.489 1338.64 934.972 1335.45C930.531 1331.36 929.698 1331.45 922.943 1336.09C926.459 1335.36 927.94 1337.91 930.068 1338.55C933.399 1339.46 933.492 1340.83 932.104 1343.47C931.086 1346.2 926.922 1348.48 925.164 1346.29ZM966.712 1384.99C967.267 1384.54 968.192 1384.45 968.933 1384.54C969.858 1384.72 970.321 1385.45 969.766 1386.27C969.118 1387.27 968.1 1387.54 966.99 1387C966.249 1386.36 966.157 1385.54 966.712 1384.99ZM950.703 1368.69C947.002 1362.14 938.119 1362.41 933.029 1355.76C937.656 1354.85 943.115 1356.04 944.133 1349.93C944.226 1349.48 947.465 1349.57 949.963 1349.48C951.351 1356.04 954.405 1362.59 952.184 1369.24C951.721 1369.06 951.166 1368.88 950.703 1368.69ZM982.628 1345.84C982.998 1344.93 983.276 1343.92 983.553 1342.92C983.831 1343.92 983.461 1344.93 982.628 1345.84ZM1023.53 1347.2C1022.33 1348.66 1020.94 1347.11 1019.83 1346.47C1019.18 1346.11 1018.72 1345.29 1018.16 1344.74C1018.16 1344.83 1018.16 1344.83 1018.16 1344.83C1018.07 1344.83 1017.98 1344.83 1017.88 1344.74C1017.05 1345.38 1016.13 1345.93 1015.29 1346.56C1014.27 1347.29 1013.26 1347.93 1012.89 1346.2C1012.7 1345.38 1013.07 1344.2 1014 1344.2C1015.29 1344.11 1016.59 1344.56 1017.88 1344.74C1017.98 1344.65 1018.07 1344.65 1018.07 1344.56C1018.07 1344.56 1018.07 1344.56 1018.16 1344.65C1018.25 1341.37 1020.29 1341.92 1022.23 1342.92C1023.99 1343.92 1024.82 1345.65 1023.53 1347.2ZM1030.75 1257.05C1030.38 1257.78 1029.64 1258.32 1028.9 1257.69C1028.06 1257.05 1027.32 1256.05 1027.97 1255.05C1028.25 1254.68 1029.45 1254.86 1029.82 1254.77C1031.02 1255.5 1031.12 1256.32 1030.75 1257.05ZM1043.89 1288.28C1043.15 1288.83 1042.22 1289.1 1041.57 1288.28C1041.3 1287.92 1041.11 1287.1 1041.39 1286.74C1041.76 1285.83 1042.68 1285.64 1043.52 1286.19C1044.26 1286.64 1044.35 1287.46 1043.89 1288.28ZM1046.48 1323.25C1046.2 1322.89 1046.2 1322.07 1046.38 1321.7C1047.68 1319.79 1049.35 1320.52 1050.92 1321.34C1051.57 1321.7 1052.12 1322.43 1052.49 1322.89C1052.03 1324.16 1051.01 1323.89 1050.18 1324.16C1048.88 1324.53 1047.4 1324.8 1046.48 1323.25ZM1054.9 1358.13C1053.97 1359.04 1052.58 1359.59 1051.47 1360.32C1050.55 1358.59 1051.47 1357.4 1051.66 1356.04C1051.84 1354.21 1053.14 1353.85 1054.62 1354.03C1055.18 1354.03 1055.92 1354.31 1056.1 1354.67C1057.12 1356.22 1055.73 1357.22 1054.9 1358.13ZM1049.16 1264.7C1053.05 1260.78 1057.12 1260.78 1062.58 1261.69C1059.34 1264.88 1059.34 1264.88 1059.15 1271.8C1054.53 1271.07 1052.4 1267.43 1049.16 1264.7ZM1076.55 1361.13C1077.38 1360.22 1078.68 1360.22 1079.7 1360.77C1080.99 1361.5 1081.73 1362.68 1080.44 1364.14C1079.6 1365.23 1078.59 1365.14 1077.48 1364.41C1076.64 1363.5 1075.16 1362.68 1076.55 1361.13ZM1076.27 1368.24C1081.09 1368.24 1086.64 1366.51 1090.25 1371.7C1088.58 1374.25 1085.43 1371.52 1084.05 1374.34C1082.2 1378.07 1081.64 1378.25 1079.88 1377.25C1078.49 1376.52 1077.57 1374.89 1076.09 1374.25C1074.61 1373.52 1072.11 1373.97 1072.66 1371.52C1072.94 1369.97 1074.7 1368.24 1076.27 1368.24ZM1078.77 1279.27C1077.11 1280.91 1074.98 1279.36 1073.13 1278.63C1073.13 1278.63 1073.13 1278.63 1073.13 1278.72C1073.13 1278.81 1073.22 1278.81 1073.22 1278.9L1073.13 1278.81C1072.76 1280.09 1072.66 1281.36 1072.94 1282.73C1073.31 1284.19 1071.83 1284.91 1070.91 1284.37C1068.96 1283.28 1066.83 1281.54 1068.04 1279.18C1069.24 1276.63 1071.37 1276.54 1073.22 1278.81V1278.72C1071.28 1273.08 1066.09 1272.8 1061.1 1272.8C1062.12 1269.25 1065.08 1271.8 1066.37 1269.89C1067.95 1267.52 1069.61 1265.15 1073.31 1266.25C1076.92 1267.34 1077.66 1270.62 1079.42 1273.08C1080.9 1275.17 1080.53 1277.63 1078.77 1279.27ZM1088.49 1250.77C1087.93 1251.58 1087.19 1251.68 1086.54 1250.95C1085.62 1249.85 1086.17 1248.94 1087.01 1248.12C1087.66 1247.4 1088.49 1247.49 1089.23 1248.03C1090.15 1249.22 1089.04 1249.95 1088.49 1250.77ZM1088.4 1244.85C1087.56 1244.21 1086.45 1243.48 1087.56 1242.21C1088.4 1241.2 1089.69 1241.29 1090.8 1241.75C1091.36 1242.02 1091.73 1242.3 1091.91 1242.75C1091.45 1243.02 1091.17 1243.66 1091.26 1244.94C1090.43 1245.48 1089.41 1245.3 1088.4 1244.85ZM1093.95 1248.76C1098.2 1248.03 1101.63 1247.94 1105.05 1250.86C1099.78 1252.22 1099.78 1252.22 1093.95 1248.76ZM1116.8 1257.6C1115.69 1258.51 1114.58 1258.05 1113.56 1257.5C1112.92 1257.05 1111.99 1255.86 1112.18 1255.59C1113.29 1253.68 1114.68 1255.23 1115.79 1255.68C1116.62 1255.87 1117.27 1256.59 1116.8 1257.6ZM1126.52 1232.19C1127.07 1232.1 1127.72 1232.01 1128.28 1231.92C1130.5 1233.28 1132.9 1234.28 1135.5 1235.1C1132.44 1235.01 1129.3 1234.92 1126.52 1232.19Z" fill="#C4C4C4"/>
</svg>
